<mxfile host="Electron" agent="Mozilla/5.0 (Windows NT 10.0; Win64; x64) AppleWebKit/537.36 (KHTML, like Gecko) draw.io/26.0.16 Chrome/132.0.6834.196 Electron/34.2.0 Safari/537.36" version="26.0.16">
  <diagram name="Page-1" id="aKikbBLT6MRlQPKkQWSC">
    <mxGraphModel dx="574" dy="334" grid="0" gridSize="10" guides="1" tooltips="1" connect="1" arrows="1" fold="1" page="1" pageScale="1" pageWidth="1169" pageHeight="827" math="0" shadow="0">
      <root>
        <mxCell id="0" />
        <mxCell id="1" parent="0" />
        <mxCell id="g9lSJ-NPG0jrCAgYnjr5-1" value="" style="endArrow=none;html=1;rounded=0;strokeWidth=3;" parent="1" edge="1">
          <mxGeometry width="50" height="50" relative="1" as="geometry">
            <mxPoint x="324.3768115942029" y="397.2105263157895" as="sourcePoint" />
            <mxPoint x="324.3768115942029" y="260.36842105263156" as="targetPoint" />
          </mxGeometry>
        </mxCell>
        <mxCell id="g9lSJ-NPG0jrCAgYnjr5-2" value="" style="endArrow=none;html=1;rounded=0;strokeWidth=3;" parent="1" edge="1">
          <mxGeometry width="50" height="50" relative="1" as="geometry">
            <mxPoint x="324.3768115942029" y="397.2105263157895" as="sourcePoint" />
            <mxPoint x="417.1304347826087" y="397.2105263157895" as="targetPoint" />
          </mxGeometry>
        </mxCell>
        <mxCell id="g9lSJ-NPG0jrCAgYnjr5-7" value="" style="endArrow=none;html=1;rounded=0;strokeWidth=3;" parent="1" edge="1">
          <mxGeometry width="50" height="50" relative="1" as="geometry">
            <mxPoint x="323" y="397" as="sourcePoint" />
            <mxPoint x="417.1304347826087" y="369.8421052631579" as="targetPoint" />
            <Array as="points">
              <mxPoint x="417" y="397" />
            </Array>
          </mxGeometry>
        </mxCell>
        <mxCell id="g9lSJ-NPG0jrCAgYnjr5-8" value="" style="endArrow=none;html=1;rounded=0;strokeWidth=3;" parent="1" edge="1">
          <mxGeometry width="50" height="50" relative="1" as="geometry">
            <mxPoint x="405.536231884058" y="369.8421052631579" as="sourcePoint" />
            <mxPoint x="428.72463768115944" y="369.8421052631579" as="targetPoint" />
          </mxGeometry>
        </mxCell>
        <mxCell id="g9lSJ-NPG0jrCAgYnjr5-9" value="" style="endArrow=none;html=1;rounded=0;strokeWidth=3;" parent="1" edge="1">
          <mxGeometry width="50" height="50" relative="1" as="geometry">
            <mxPoint x="451.9130434782609" y="369.8421052631579" as="sourcePoint" />
            <mxPoint x="475.1014492753623" y="369.8421052631579" as="targetPoint" />
          </mxGeometry>
        </mxCell>
        <mxCell id="g9lSJ-NPG0jrCAgYnjr5-10" value="" style="endArrow=none;html=1;rounded=0;strokeWidth=3;" parent="1" edge="1">
          <mxGeometry width="50" height="50" relative="1" as="geometry">
            <mxPoint x="551" y="397" as="sourcePoint" />
            <mxPoint x="463.5072463768116" y="369.8421052631579" as="targetPoint" />
            <Array as="points">
              <mxPoint x="463.5072463768116" y="397.2105263157895" />
            </Array>
          </mxGeometry>
        </mxCell>
        <mxCell id="g9lSJ-NPG0jrCAgYnjr5-11" value="" style="endArrow=none;html=1;rounded=0;strokeWidth=3;" parent="1" edge="1">
          <mxGeometry width="50" height="50" relative="1" as="geometry">
            <mxPoint x="405.536231884058" y="356.1578947368421" as="sourcePoint" />
            <mxPoint x="475.1014492753623" y="356.1578947368421" as="targetPoint" />
          </mxGeometry>
        </mxCell>
        <mxCell id="g9lSJ-NPG0jrCAgYnjr5-12" value="" style="endArrow=none;html=1;rounded=0;strokeWidth=3;" parent="1" edge="1">
          <mxGeometry width="50" height="50" relative="1" as="geometry">
            <mxPoint x="440.3188405797101" y="356.1578947368421" as="sourcePoint" />
            <mxPoint x="440.3188405797101" y="315.10526315789474" as="targetPoint" />
          </mxGeometry>
        </mxCell>
        <mxCell id="g9lSJ-NPG0jrCAgYnjr5-13" value="" style="endArrow=none;html=1;rounded=0;strokeWidth=3;" parent="1" edge="1">
          <mxGeometry width="50" height="50" relative="1" as="geometry">
            <mxPoint x="289.59420289855075" y="315.10526315789474" as="sourcePoint" />
            <mxPoint x="556.2608695652174" y="315.10526315789474" as="targetPoint" />
          </mxGeometry>
        </mxCell>
        <mxCell id="g9lSJ-NPG0jrCAgYnjr5-14" value="" style="endArrow=none;html=1;rounded=0;strokeWidth=3;" parent="1" edge="1">
          <mxGeometry width="50" height="50" relative="1" as="geometry">
            <mxPoint x="510" y="435" as="sourcePoint" />
            <mxPoint x="509.8840579710145" y="397.2105263157895" as="targetPoint" />
          </mxGeometry>
        </mxCell>
        <mxCell id="g9lSJ-NPG0jrCAgYnjr5-15" value="" style="endArrow=none;html=1;rounded=0;strokeWidth=3;" parent="1" edge="1">
          <mxGeometry width="50" height="50" relative="1" as="geometry">
            <mxPoint x="289.59420289855075" y="493.59578947368425" as="sourcePoint" />
            <mxPoint x="556.2608695652174" y="493.59578947368425" as="targetPoint" />
          </mxGeometry>
        </mxCell>
        <mxCell id="g9lSJ-NPG0jrCAgYnjr5-16" value="" style="endArrow=none;html=1;rounded=0;strokeWidth=3;" parent="1" edge="1">
          <mxGeometry width="50" height="50" relative="1" as="geometry">
            <mxPoint x="497.79985507246374" y="433.94894736842105" as="sourcePoint" />
            <mxPoint x="520.9882608695652" y="433.94894736842105" as="targetPoint" />
          </mxGeometry>
        </mxCell>
        <mxCell id="g9lSJ-NPG0jrCAgYnjr5-17" value="" style="endArrow=none;html=1;rounded=0;strokeWidth=3;" parent="1" edge="1">
          <mxGeometry width="50" height="50" relative="1" as="geometry">
            <mxPoint x="497.79985507246374" y="461.3173684210526" as="sourcePoint" />
            <mxPoint x="520.9882608695652" y="461.3173684210526" as="targetPoint" />
          </mxGeometry>
        </mxCell>
        <mxCell id="g9lSJ-NPG0jrCAgYnjr5-18" value="" style="endArrow=none;html=1;rounded=0;strokeWidth=3;" parent="1" edge="1">
          <mxGeometry width="50" height="50" relative="1" as="geometry">
            <mxPoint x="509.3940579710145" y="488.6857894736842" as="sourcePoint" />
            <mxPoint x="509.3940579710145" y="461.3173684210526" as="targetPoint" />
          </mxGeometry>
        </mxCell>
        <mxCell id="g9lSJ-NPG0jrCAgYnjr5-19" value="" style="endArrow=none;html=1;rounded=0;strokeWidth=3;" parent="1" edge="1">
          <mxGeometry width="50" height="50" relative="1" as="geometry">
            <mxPoint x="492.00275362318837" y="475.00157894736844" as="sourcePoint" />
            <mxPoint x="526.7853623188406" y="420.26473684210526" as="targetPoint" />
            <Array as="points">
              <mxPoint x="503.5969565217391" y="475.00157894736844" />
              <mxPoint x="515.1911594202899" y="420.26473684210526" />
            </Array>
          </mxGeometry>
        </mxCell>
        <mxCell id="g9lSJ-NPG0jrCAgYnjr5-20" value="&lt;font style=&quot;font-size: 14px;&quot;&gt;&lt;b style=&quot;&quot;&gt;Plate Line&lt;/b&gt;&lt;/font&gt;" style="text;html=1;align=center;verticalAlign=middle;whiteSpace=wrap;rounded=0;container=0;" parent="1" vertex="1">
          <mxGeometry x="556.2608695652174" y="480.00157894736844" width="92.7536231884058" height="27.36842105263158" as="geometry" />
        </mxCell>
        <mxCell id="g9lSJ-NPG0jrCAgYnjr5-21" value="&lt;font style=&quot;font-size: 14px;&quot;&gt;&lt;b style=&quot;&quot;&gt;Word Line&lt;/b&gt;&lt;/font&gt;" style="text;html=1;align=center;verticalAlign=middle;whiteSpace=wrap;rounded=0;container=0;" parent="1" vertex="1">
          <mxGeometry x="556.2608695652174" y="301.42105263157896" width="92.7536231884058" height="27.36842105263158" as="geometry" />
        </mxCell>
        <mxCell id="g9lSJ-NPG0jrCAgYnjr5-22" value="&lt;font style=&quot;font-size: 14px;&quot;&gt;&lt;b style=&quot;&quot;&gt;Bit Line&lt;/b&gt;&lt;/font&gt;" style="text;html=1;align=center;verticalAlign=middle;whiteSpace=wrap;rounded=0;container=0;" parent="1" vertex="1">
          <mxGeometry x="278" y="233" width="92.7536231884058" height="27.36842105263158" as="geometry" />
        </mxCell>
        <mxCell id="g9lSJ-NPG0jrCAgYnjr5-23" value="&lt;font style=&quot;font-size: 14px;&quot;&gt;&lt;b style=&quot;&quot;&gt;Feroeletric Capacitor&lt;/b&gt;&lt;/font&gt;" style="text;html=1;align=center;verticalAlign=middle;whiteSpace=wrap;rounded=0;container=0;" parent="1" vertex="1">
          <mxGeometry x="526.7853623188406" y="433.94894736842105" width="150.72463768115944" height="27.36842105263158" as="geometry" />
        </mxCell>
        <mxCell id="2LAiIIOdZdna_oi8UJlP-2" value="" style="ellipse;whiteSpace=wrap;html=1;aspect=fixed;fillColor=#000000;container=0;" vertex="1" parent="1">
          <mxGeometry x="435" y="310.11" width="10" height="10" as="geometry" />
        </mxCell>
        <mxCell id="2LAiIIOdZdna_oi8UJlP-4" value="" style="ellipse;whiteSpace=wrap;html=1;aspect=fixed;fillColor=#000000;container=0;" vertex="1" parent="1">
          <mxGeometry x="505" y="392" width="10" height="10" as="geometry" />
        </mxCell>
        <mxCell id="2LAiIIOdZdna_oi8UJlP-10" value="" style="ellipse;whiteSpace=wrap;html=1;aspect=fixed;fillColor=#000000;container=0;" vertex="1" parent="1">
          <mxGeometry x="505" y="488.69" width="10" height="10" as="geometry" />
        </mxCell>
      </root>
    </mxGraphModel>
  </diagram>
</mxfile>
